<svg width="196" height="72" viewBox="0 0 196 72" fill="none" xmlns="http://www.w3.org/2000/svg">
<g clip-path="url(#clip0_356_197)">
<path d="M88.9632 24.3702C89.5677 24.171 90.1163 23.8307 90.5639 23.3775C90.9486 23.0117 91.2528 22.5696 91.4572 22.0793C91.6616 21.5891 91.7616 21.0614 91.7508 20.5302C91.7686 19.7267 91.5365 18.9375 91.0865 18.272C90.6486 17.6321 90.0138 17.1532 89.279 16.9084C89.6564 16.5884 89.9586 16.1886 90.1638 15.7379C90.369 15.2871 90.4721 14.7965 90.4659 14.3011C90.4644 13.721 90.3381 13.148 90.0957 12.6211C89.8859 12.1012 89.5621 11.6352 89.1483 11.2575C88.7322 10.8886 88.2306 10.6299 87.6892 10.5048C86.936 10.3323 86.1641 10.2553 85.3916 10.2757H83.2139V24.6429H86.4805C87.3164 24.6603 88.151 24.5686 88.9632 24.3702ZM85.4025 12.272H86.1648C86.7662 12.2293 87.3615 12.4164 87.8308 12.7957C88.0334 12.9942 88.19 13.2348 88.2898 13.5006C88.3895 13.7663 88.4298 14.0508 88.4079 14.3338C88.4295 14.62 88.3913 14.9075 88.2957 15.178C88.2001 15.4485 88.0491 15.696 87.8525 15.9048C87.3509 16.3038 86.7157 16.4951 86.0777 16.4393H85.4025V12.272ZM85.4025 18.2611H86.4914C87.3454 18.1734 88.2026 18.3939 88.9088 18.8829C89.1312 19.0795 89.3094 19.3212 89.4314 19.5921C89.5535 19.8629 89.6166 20.1567 89.6166 20.4539C89.6166 20.751 89.5535 21.0448 89.4314 21.3156C89.3094 21.5865 89.1312 21.8282 88.9088 22.0248C88.2719 22.465 87.5019 22.6694 86.731 22.6029H85.3916L85.4025 18.2611Z" fill="white"/>
<path d="M98.4367 24.8615C99.0775 24.8803 99.7155 24.7692 100.312 24.5349C100.909 24.3006 101.453 23.9478 101.91 23.4978C102.369 23.0579 102.73 22.527 102.972 21.939C103.214 21.351 103.331 20.719 103.315 20.0833C103.318 19.459 103.195 18.8406 102.954 18.2651C102.712 17.6896 102.357 17.1689 101.91 16.7342C101.459 16.2832 100.922 15.9281 100.331 15.6901C99.7395 15.452 99.1064 15.3359 98.4693 15.3487C97.838 15.3352 97.2105 15.45 96.6247 15.6862C96.0389 15.9225 95.507 16.2752 95.0611 16.7233C94.6086 17.1516 94.25 17.6696 94.0082 18.2443C93.7664 18.819 93.6466 19.4378 93.6565 20.0614C93.637 20.7012 93.7486 21.3382 93.9846 21.933C94.2206 22.5279 94.5759 23.0678 95.0285 23.5196C95.4736 23.9665 96.0062 24.3163 96.5927 24.5472C97.1792 24.7781 97.807 24.8851 98.4367 24.8615ZM96.5311 17.9887C96.787 17.7321 97.0908 17.5285 97.4253 17.3896C97.7597 17.2507 98.1182 17.1792 98.4802 17.1792C98.8423 17.1792 99.2008 17.2507 99.5352 17.3896C99.8697 17.5285 100.174 17.7321 100.429 17.9887C100.941 18.5666 101.207 19.3224 101.17 20.0942C101.205 20.869 100.94 21.6275 100.429 22.2105C99.9022 22.7172 99.1999 23.0002 98.4693 23.0002C97.7388 23.0002 97.0365 22.7172 96.5094 22.2105C95.9986 21.603 95.7411 20.8215 95.7907 20.0287C95.7659 19.2785 96.0312 18.5477 96.5311 17.9887Z" fill="white"/>
<path d="M107.605 8.90137H105.515V24.6105H107.605V8.90137Z" fill="white"/>
<path d="M112.887 22.9962C112.552 23.0001 112.228 22.8752 111.983 22.6471C111.756 22.3986 111.566 22.1195 111.417 21.818L109.631 22.6471C109.834 23.1567 110.155 23.6108 110.567 23.9725C110.979 24.3342 111.47 24.5931 112.001 24.7282C112.532 24.8633 113.087 24.8707 113.621 24.7498C114.156 24.6289 114.654 24.3831 115.075 24.0326C115.384 23.7604 115.631 23.4245 115.798 23.0479C115.965 22.6713 116.049 22.2629 116.044 21.8508C116.074 21.2506 115.866 20.6629 115.467 20.2144C114.804 19.6443 114.044 19.1973 113.224 18.8944C112.418 18.5562 112.016 18.2071 112.016 17.8689C112.014 17.7772 112.031 17.686 112.067 17.6014C112.103 17.5169 112.156 17.4407 112.222 17.378C112.354 17.2507 112.53 17.1802 112.712 17.1817C113.115 17.1817 113.453 17.4653 113.725 18.0217L115.456 17.1053C115.262 16.5765 114.911 16.1202 114.449 15.7982C113.987 15.4763 113.438 15.3042 112.876 15.3053C112.132 15.2898 111.413 15.5681 110.872 16.0798C110.606 16.3287 110.395 16.6315 110.254 16.9682C110.113 17.3049 110.046 17.6677 110.056 18.0326C110.033 18.562 110.203 19.0816 110.535 19.4944C110.902 19.8721 111.338 20.1758 111.82 20.3889L112.451 20.6944L113.083 20.9998C113.627 21.3162 113.899 21.6653 113.899 22.0908C113.943 22.6689 113.594 22.9962 112.887 22.9962Z" fill="white"/>
<path d="M123.688 19.2541V24.6105H125.779V19.0577C125.864 18.0691 125.585 17.0834 124.995 16.2868C124.68 15.9562 124.299 15.6966 123.877 15.5254C123.454 15.3542 123 15.2753 122.545 15.2941C121.627 15.3057 120.748 15.6642 120.084 16.2977V8.90137H118.004V24.6105H120.084V20.2468C120.021 19.4356 120.175 18.6223 120.53 17.8904C120.704 17.6514 120.937 17.4622 121.206 17.3416C121.476 17.221 121.772 17.1733 122.065 17.2032C122.296 17.1828 122.529 17.2166 122.744 17.3018C122.959 17.387 123.152 17.5213 123.307 17.6941C123.595 18.161 123.728 18.7069 123.688 19.2541Z" fill="white"/>
<path d="M135.045 24.6104H137.146V15.545H135.045V16.6359C134.691 16.2311 134.256 15.9054 133.768 15.6799C133.28 15.4543 132.751 15.334 132.213 15.3268C131.637 15.3167 131.065 15.4336 130.538 15.6692C130.011 15.9048 129.542 16.2534 129.165 16.6904C128.346 17.6264 127.914 18.8395 127.956 20.0832C127.914 21.3467 128.345 22.5802 129.165 23.5413C129.531 23.9542 129.978 24.2874 130.478 24.5202C130.978 24.7531 131.52 24.8805 132.072 24.8949C132.623 24.9092 133.171 24.81 133.682 24.6035C134.194 24.3969 134.657 24.0874 135.045 23.6941V24.6104ZM134.457 22.1995C134.223 22.463 133.934 22.6712 133.61 22.8089C133.286 22.9467 132.935 23.0105 132.584 22.9959C132.241 23.002 131.902 22.9307 131.591 22.7871C131.28 22.6436 131.005 22.4315 130.787 22.1668C130.304 21.5708 130.056 20.8176 130.09 20.0504C130.068 19.3012 130.324 18.5702 130.809 17.9995C131.029 17.738 131.304 17.5288 131.615 17.3873C131.926 17.2458 132.264 17.1754 132.606 17.1813C132.955 17.1698 133.302 17.2362 133.622 17.3759C133.942 17.5155 134.227 17.7248 134.457 17.9886C134.923 18.5911 135.176 19.3317 135.176 20.094C135.176 20.8564 134.923 21.5971 134.457 22.1995Z" fill="white"/>
<path d="M143.691 19.3523L147.622 15.545H144.813L141.873 18.4796V8.90137H139.782V24.6105H141.873V21.1196L142.21 20.7814L145.194 24.6105H147.905L143.691 19.3523Z" fill="white"/>
<path d="M153.22 24.8615C153.859 24.8789 154.495 24.7671 155.09 24.5328C155.685 24.2985 156.226 23.9465 156.683 23.4979C157.141 23.0579 157.503 22.527 157.745 21.939C157.986 21.3511 158.103 20.719 158.087 20.0833C158.099 19.4507 157.982 18.8224 157.742 18.237C157.502 17.6517 157.145 17.1217 156.694 16.6797C155.773 15.7936 154.546 15.2988 153.269 15.2988C151.992 15.2988 150.765 15.7936 149.844 16.6797C149.392 17.108 149.033 17.626 148.792 18.2007C148.55 18.7754 148.43 19.3942 148.44 20.0179C148.42 20.6587 148.532 21.2967 148.77 21.8918C149.008 22.487 149.367 23.0263 149.823 23.476C150.262 23.9304 150.791 24.2883 151.376 24.5268C151.961 24.7653 152.589 24.8793 153.22 24.8615ZM151.325 17.9887C151.572 17.7229 151.872 17.5132 152.207 17.3739C152.541 17.2346 152.902 17.169 153.264 17.1815C153.629 17.1687 153.992 17.2341 154.33 17.3733C154.668 17.5125 154.973 17.7223 155.224 17.9887C155.733 18.5677 155.995 19.3237 155.953 20.0942C155.999 20.8544 155.754 21.6036 155.267 22.1888C155.015 22.4518 154.71 22.658 154.372 22.7934C154.034 22.9288 153.671 22.9905 153.307 22.9742C152.942 22.9913 152.578 22.9289 152.24 22.7914C151.902 22.654 151.597 22.4446 151.347 22.1778C150.832 21.5719 150.571 20.7903 150.618 19.996C150.588 19.2607 150.841 18.5421 151.325 17.9887Z" fill="white"/>
<path d="M168.06 15.5449H165.708L163.377 20.6395L161.036 15.5449H158.706L163.356 25.2322L168.06 15.5449Z" fill="white"/>
<path d="M85.5772 42.3375H91.7186L93.2212 45.8284H95.5841L88.7459 30.5557L81.6572 45.8284H83.9875L85.5772 42.3375ZM88.7132 35.4211L90.8366 40.2975H86.481L88.7132 35.4211Z" fill="white"/>
<path d="M102.759 43.0576C102.778 42.7616 102.737 42.4648 102.638 42.1853C102.539 41.9058 102.383 41.6496 102.182 41.4322C101.526 40.8548 100.769 40.4036 99.9499 40.1013C99.1441 39.7631 98.7412 39.4249 98.7412 39.0758C98.7379 38.9838 98.7548 38.8922 98.7905 38.8074C98.8263 38.7227 98.88 38.6467 98.9481 38.5849C99.0125 38.5218 99.0894 38.4727 99.1737 38.4408C99.258 38.4089 99.348 38.3948 99.4381 38.3994C99.841 38.3994 100.179 38.6722 100.451 39.2285L102.182 38.3122C101.987 37.7816 101.634 37.3241 101.17 37.002C100.706 36.6798 100.155 36.5088 99.5905 36.5122C98.8474 36.499 98.1286 36.7769 97.587 37.2867C97.3235 37.5374 97.1156 37.8408 96.9768 38.1772C96.838 38.5136 96.7714 38.8755 96.7812 39.2394C96.7584 39.7688 96.9287 40.2884 97.2603 40.7012C97.6203 41.0826 98.0536 41.3869 98.5343 41.5958L99.1767 41.9013L99.8083 42.2067C100.353 42.534 100.625 42.8722 100.625 43.2976C100.625 43.9413 100.277 44.2576 99.5361 44.2576C99.1983 44.26 98.872 44.1354 98.6214 43.9085C98.3986 43.6571 98.2083 43.3786 98.0552 43.0794L96.2803 43.9085C96.4817 44.4197 96.8015 44.8756 97.2132 45.2387C97.625 45.6018 98.117 45.8618 98.6486 45.9971C99.1803 46.1324 99.7364 46.1392 100.271 46.0169C100.806 45.8947 101.304 45.6469 101.725 45.294C102.053 45.0227 102.317 44.6808 102.496 44.2937C102.675 43.9067 102.765 43.4842 102.759 43.0576Z" fill="white"/>
<path d="M107.659 40.1013C106.853 39.7631 106.461 39.4249 106.461 39.0758C106.458 38.9849 106.474 38.8944 106.508 38.81C106.542 38.7256 106.592 38.649 106.657 38.5849C106.789 38.4606 106.965 38.3939 107.147 38.3994C107.561 38.3994 107.887 38.6722 108.16 39.2285L109.891 38.3122C109.697 37.7833 109.345 37.327 108.883 37.0051C108.422 36.6831 107.873 36.5111 107.31 36.5122C106.567 36.499 105.848 36.7769 105.307 37.2867C105.042 37.5361 104.833 37.8393 104.694 38.176C104.555 38.5127 104.489 38.8753 104.501 39.2394C104.475 39.7674 104.641 40.2869 104.969 40.7012C105.333 41.0825 105.77 41.3866 106.254 41.5958L106.896 41.9013L107.528 42.2067C108.072 42.534 108.345 42.8722 108.345 43.2976C108.345 43.9413 107.985 44.2576 107.256 44.2576C106.921 44.2616 106.597 44.1366 106.352 43.9085C106.129 43.6571 105.939 43.3786 105.786 43.0794L104 43.9085C104.201 44.4197 104.521 44.8756 104.933 45.2387C105.345 45.6018 105.837 45.8618 106.368 45.9971C106.9 46.1324 107.456 46.1392 107.991 46.0169C108.526 45.8947 109.024 45.6469 109.444 45.294C109.753 45.0218 110 44.6859 110.167 44.3093C110.335 43.9327 110.419 43.5243 110.414 43.1121C110.43 42.8164 110.387 42.5205 110.288 42.2414C110.189 41.9624 110.035 41.7059 109.836 41.4867C109.2 40.8971 108.462 40.4277 107.659 40.1013Z" fill="white"/>
<path d="M117.765 43.8433C117.383 44.1011 116.929 44.2309 116.469 44.2142C116.166 44.2233 115.864 44.171 115.581 44.0604C115.299 43.9498 115.041 43.7832 114.825 43.5706C114.382 43.082 114.127 42.4518 114.106 41.7924H120.585V41.3015C120.66 40.0261 120.248 38.7698 119.431 37.7888C118.587 36.9566 117.451 36.4902 116.267 36.4902C115.084 36.4902 113.948 36.9566 113.104 37.7888C112.283 38.752 111.859 39.9924 111.917 41.2579C111.853 42.5331 112.291 43.7826 113.137 44.7379C113.557 45.1767 114.065 45.5205 114.629 45.7463C115.192 45.9721 115.797 46.0746 116.403 46.0469C116.844 46.0485 117.282 45.9972 117.71 45.8942C118.096 45.7964 118.463 45.6381 118.799 45.4251C119.159 45.1991 119.485 44.9237 119.768 44.6069C120.1 44.2385 120.392 43.8363 120.639 43.407L118.875 42.4251C118.585 42.9557 118.21 43.4349 117.765 43.8433ZM114.498 39.3815C114.621 39.1803 114.78 39.0029 114.966 38.8579C115.146 38.7077 115.353 38.5929 115.576 38.5197C115.807 38.4395 116.05 38.3989 116.295 38.3997C116.79 38.3688 117.28 38.5236 117.668 38.8341C118.057 39.1445 118.316 39.5884 118.396 40.0797H114.204C114.277 39.8299 114.391 39.594 114.541 39.3815H114.498Z" fill="white"/>
<path d="M123.099 45.8291H125.19V38.7273H126.812V36.7745H125.19V33.4473H123.099V36.7745H122.206V38.7273H123.099V45.8291Z" fill="white"/>
<path d="M90.6831 62.7703L85.7613 51.6104L82.7451 67.0467H84.9773L86.5127 58.374L90.6396 67.7122L94.8862 58.3849L96.2691 67.0467H98.4796L95.7791 51.6104L90.6831 62.7703Z" fill="white"/>
<path d="M107.78 59.0394C107.427 58.6335 106.992 58.3071 106.504 58.0815C106.017 57.8559 105.487 57.7362 104.949 57.7303C104.374 57.7188 103.803 57.8351 103.278 58.0709C102.752 58.3067 102.286 58.656 101.911 59.0939C101.087 60.0272 100.65 61.2412 100.692 62.4867C100.647 63.7524 101.083 64.9881 101.911 65.9448C102.275 66.3603 102.72 66.6958 103.219 66.9304C103.719 67.165 104.261 67.2935 104.812 67.3079C105.364 67.3222 105.912 67.2221 106.423 67.0138C106.933 66.8055 107.396 66.4935 107.78 66.0976V67.0466H109.882V57.9812H107.78V59.0394ZM107.203 64.6357C106.969 64.8987 106.68 65.1064 106.356 65.2441C106.032 65.3818 105.682 65.446 105.33 65.4321C104.986 65.4399 104.644 65.3694 104.331 65.2257C104.018 65.0821 103.742 64.8692 103.523 64.603C103.043 64.0051 102.795 63.2533 102.826 62.4867C102.803 61.7406 103.059 61.0129 103.544 60.4467C103.762 60.1819 104.037 59.9698 104.348 59.8263C104.659 59.6827 104.999 59.6114 105.341 59.6176C105.693 59.6065 106.042 59.6742 106.364 59.8157C106.687 59.9573 106.973 60.1691 107.203 60.4357C107.661 61.0395 107.91 61.7772 107.91 62.5357C107.91 63.2943 107.661 64.032 107.203 64.6357Z" fill="white"/>
<path d="M117.088 57.7299C116.624 57.7353 116.166 57.8347 115.741 58.0222C115.316 58.2097 114.933 58.4813 114.616 58.8208V57.9808H112.515V67.0462H114.616V62.6826C114.552 61.87 114.698 61.0546 115.041 60.3153C115.205 60.0799 115.429 59.8923 115.689 59.7715C115.949 59.6508 116.236 59.6013 116.522 59.6281C116.766 59.6006 117.014 59.6329 117.243 59.7222C117.473 59.8115 117.677 59.9551 117.839 60.1408C118.134 60.7119 118.262 61.3546 118.21 61.9953V67.0572H120.3V61.4608C120.391 60.4784 120.12 59.4965 119.538 58.7008C119.226 58.3682 118.845 58.1087 118.421 57.9409C117.998 57.773 117.543 57.7009 117.088 57.7299Z" fill="white"/>
<path d="M129.612 59.0402C129.257 58.6365 128.822 58.3115 128.334 58.086C127.847 57.8606 127.318 57.7397 126.781 57.7311C126.204 57.721 125.632 57.8379 125.105 58.0735C124.578 58.3091 124.11 58.6577 123.732 59.0947C122.911 60.0302 122.476 61.2427 122.512 62.4875C122.472 63.7526 122.907 64.9867 123.732 65.9456C124.096 66.3614 124.543 66.6971 125.043 66.9318C125.543 67.1665 126.086 67.295 126.639 67.3094C127.191 67.3237 127.74 67.2236 128.252 67.0152C128.763 66.8067 129.226 66.4946 129.612 66.0984V67.0474H131.703V57.982H129.612V59.0402ZM129.024 64.6365C128.79 64.8995 128.5 65.1072 128.176 65.2449C127.853 65.3826 127.502 65.4468 127.151 65.4329C126.807 65.4407 126.465 65.3702 126.152 65.2265C125.839 65.0829 125.562 64.87 125.343 64.6038C124.863 64.0059 124.616 63.2541 124.647 62.4875C124.623 61.7414 124.88 61.0137 125.365 60.4475C125.585 60.1819 125.861 59.9694 126.174 59.8258C126.487 59.6822 126.829 59.6113 127.173 59.6184C127.523 59.6089 127.87 59.6774 128.19 59.8189C128.51 59.9604 128.795 60.1714 129.024 60.4365C129.489 61.0373 129.742 61.7761 129.742 62.5365C129.742 63.2969 129.489 64.0358 129.024 64.6365Z" fill="white"/>
<path d="M141.001 59.007C140.651 58.5979 140.214 58.2714 139.723 58.0507C139.231 57.8301 138.698 57.7208 138.159 57.7306C137.558 57.7105 136.96 57.8335 136.415 58.0895C135.87 58.3455 135.393 58.7272 135.023 59.2034C134.28 60.1657 133.895 61.3579 133.934 62.5743C133.897 63.8134 134.32 65.0223 135.121 65.967C135.49 66.3835 135.942 66.718 136.448 66.9491C136.954 67.1802 137.502 67.3028 138.058 67.309C138.614 67.3151 139.164 67.2048 139.675 66.9849C140.186 66.7651 140.645 66.4407 141.023 66.0325V67.2979C141.023 69.1743 140.25 70.1125 138.726 70.1125C138.366 70.1335 138.006 70.0683 137.677 69.9222C137.347 69.7761 137.057 69.5534 136.831 69.2725C136.613 68.9464 136.479 68.5718 136.439 68.1816H134.337C134.373 68.715 134.514 69.236 134.753 69.7137C134.993 70.1915 135.325 70.6164 135.731 70.9634C136.573 71.6354 137.628 71.9802 138.704 71.9343C139.336 71.9672 139.967 71.8579 140.551 71.6143C141.135 71.3708 141.657 70.9993 142.079 70.527C142.515 70.0261 142.815 69.4213 142.95 68.7707C143.006 68.4858 143.046 68.1981 143.07 67.9088C143.07 67.5816 143.07 67.1997 143.07 66.8179V57.9706H141.001V59.007ZM140.435 64.5597C140.202 64.8317 139.913 65.0501 139.588 65.1997C139.263 65.3494 138.909 65.4269 138.551 65.4269C138.194 65.4269 137.84 65.3494 137.515 65.1997C137.19 65.0501 136.901 64.8317 136.668 64.5597C136.264 63.9584 136.048 63.2501 136.048 62.5252C136.048 61.8004 136.264 61.092 136.668 60.4906C136.889 60.204 137.175 59.9743 137.503 59.8206C137.83 59.6669 138.19 59.5937 138.551 59.607C138.897 59.5964 139.241 59.6634 139.557 59.8031C139.874 59.9428 140.155 60.1516 140.381 60.4143C140.823 61.0098 141.067 61.7302 141.077 62.4727C141.087 63.2152 140.862 63.9418 140.435 64.5488V64.5597Z" fill="white"/>
<path d="M151.14 65.0616C150.758 65.3194 150.304 65.4492 149.844 65.4325C149.541 65.4422 149.238 65.3902 148.956 65.2795C148.673 65.1689 148.416 65.002 148.2 64.7888C147.757 64.3002 147.502 63.67 147.481 63.0107H153.96V62.5525C154.035 61.2771 153.623 60.0208 152.806 59.0398C151.962 58.2076 150.826 57.7412 149.642 57.7412C148.459 57.7412 147.323 58.2076 146.479 59.0398C145.658 60.0031 145.234 61.2434 145.292 62.5088C145.228 63.7841 145.666 65.0335 146.512 65.9888C146.931 66.4288 147.439 66.7734 148.003 66.9993C148.567 67.2251 149.172 67.327 149.778 67.298C150.222 67.3001 150.665 67.2488 151.096 67.1452C151.481 67.0455 151.848 66.8873 152.185 66.6761C152.542 66.4473 152.868 66.1722 153.154 65.8579C153.488 65.4916 153.78 65.0891 154.025 64.6579L152.25 63.6761C151.957 64.195 151.582 64.6629 151.14 65.0616ZM147.873 60.5998C147.996 60.3986 148.155 60.2212 148.341 60.0761C148.524 59.9298 148.73 59.8155 148.951 59.738C149.179 59.659 149.418 59.6184 149.659 59.6179C150.156 59.5868 150.647 59.7412 151.037 60.0515C151.427 60.3618 151.689 60.8058 151.771 61.298H147.644C147.697 61.0522 147.789 60.8165 147.916 60.5998H147.873Z" fill="white"/>
<path d="M165.589 57.7308C165.068 57.7157 164.552 57.8305 164.086 58.0647C163.62 58.2989 163.22 58.6452 162.921 59.0726C162.672 58.6555 162.317 58.3117 161.892 58.0761C161.468 57.8405 160.989 57.7213 160.504 57.7308C160.109 57.7206 159.718 57.8028 159.36 57.9708C158.974 58.1994 158.625 58.4864 158.326 58.8217V57.9817H156.246V67.0472H158.326V62.3672C158.277 61.6481 158.419 60.929 158.74 60.2836C158.873 60.0655 159.063 59.8881 159.289 59.7708C159.516 59.6534 159.77 59.6006 160.025 59.6181C160.95 59.6181 161.407 60.4254 161.407 62.0399V67.0472H163.509V62.3672C163.459 61.6469 163.594 60.9259 163.901 60.2726C164.031 60.0575 164.218 59.8825 164.44 59.767C164.663 59.6515 164.914 59.5999 165.164 59.6181C165.38 59.5981 165.596 59.6398 165.789 59.7382C165.982 59.8367 166.143 59.988 166.253 60.1745C166.505 60.7546 166.613 61.3871 166.569 62.0181V67.0472H168.67V61.4617C168.656 58.9817 167.629 57.7381 165.589 57.7308Z" fill="white"/>
<path d="M176.696 65.0616C176.314 65.3193 175.86 65.4492 175.4 65.4325C175.097 65.4422 174.795 65.3902 174.512 65.2795C174.229 65.1689 173.972 65.0019 173.756 64.7888C173.313 64.3002 173.059 63.67 173.037 63.0107H179.516V62.5525C179.586 61.2778 179.174 60.0234 178.362 59.0398C177.517 58.2069 176.379 57.7402 175.193 57.7402C174.008 57.7402 172.87 58.2069 172.025 59.0398C171.207 60.0052 170.783 61.244 170.838 62.5088C170.777 63.7856 171.219 65.0352 172.068 65.9888C172.487 66.4288 172.996 66.7734 173.559 66.9992C174.123 67.2251 174.728 67.327 175.335 67.2979C175.775 67.3001 176.214 67.2488 176.641 67.1452C177.026 67.0463 177.394 66.8881 177.73 66.6761C178.086 66.4444 178.411 66.1696 178.699 65.8579C179.03 65.4911 179.318 65.0886 179.56 64.6579L177.796 63.6761C177.506 64.1942 177.134 64.662 176.696 65.0616ZM173.429 60.5997C173.553 60.3985 173.711 60.2212 173.897 60.0761C174.08 59.9298 174.286 59.8155 174.507 59.7379C174.735 59.659 174.974 59.6184 175.215 59.6179C175.712 59.5868 176.203 59.7412 176.593 60.0515C176.983 60.3618 177.245 60.8058 177.327 61.2979H173.124C173.206 61.0496 173.323 60.8144 173.473 60.5997H173.429Z" fill="white"/>
<path d="M186.364 57.7306C185.9 57.7366 185.442 57.8363 185.017 58.0238C184.593 58.2112 184.21 58.4825 183.892 58.8215V57.9815H181.802V67.047H183.892V62.6833C183.828 61.8708 183.974 61.0554 184.317 60.3161C184.481 60.0806 184.705 59.893 184.965 59.7723C185.225 59.6515 185.513 59.602 185.798 59.6288C186.043 59.6013 186.29 59.6336 186.52 59.7229C186.749 59.8122 186.954 59.9558 187.116 60.1415C187.418 60.7097 187.547 61.3548 187.486 61.996V67.0579H189.587V61.4615C189.673 60.4795 189.403 59.4995 188.825 58.7015C188.511 58.3693 188.127 58.1101 187.702 57.9424C187.277 57.7746 186.82 57.7023 186.364 57.7306Z" fill="white"/>
<path d="M194.378 57.9923V54.665H192.287V57.9923H191.395V59.945H192.287V67.0469H194.378V59.945H196.001V57.9923H194.378Z" fill="white"/>
<path d="M69.3078 57.1094H0V67.0257H69.3078V57.1094Z" fill="white"/>
<path d="M69.2397 18.8058C68.8477 -4.33236 38.1083 -5.77235 31.3028 12.544C19.717 5.2131 0.182328 9.68582 -0.0136719 27.9476V51.3803H9.88434V28.2313C9.88434 15.0204 29.6586 15.0204 29.6695 28.2313V51.3912H39.5675V19.2531C39.5675 6.04218 59.3526 6.04218 59.3526 19.2531V30.6531H49.4981V38.824H59.3526V51.3803H69.2397V18.8058Z" fill="white"/>
</g>
<defs>
<clipPath id="clip0_356_197">
<rect width="196" height="72" fill="white"/>
</clipPath>
</defs>
</svg>
