<svg width="109" height="40" viewBox="0 0 109 40" fill="none" xmlns="http://www.w3.org/2000/svg">
<g clip-path="url(#clip0_171_84)">
<path d="M49.3609 13.5391C49.6963 13.4284 50.0007 13.2394 50.249 12.9876C50.4625 12.7844 50.6313 12.5388 50.7447 12.2664C50.8581 11.994 50.9136 11.7009 50.9076 11.4058C50.9175 10.9594 50.7887 10.5209 50.539 10.1512C50.2961 9.79573 49.9438 9.52969 49.5361 9.39366C49.7455 9.21586 49.9132 8.9938 50.027 8.74338C50.1409 8.49296 50.1981 8.22038 50.1947 7.94517C50.1938 7.62287 50.1238 7.30454 49.9892 7.01185C49.8728 6.723 49.6932 6.4641 49.4636 6.25428C49.2327 6.04935 48.9544 5.90559 48.654 5.83609C48.2361 5.74027 47.8078 5.6975 47.3792 5.70881H46.1709V13.6906H47.9834C48.4472 13.7003 48.9102 13.6493 49.3609 13.5391ZM47.3853 6.81791H47.8082C48.1419 6.79416 48.4722 6.89811 48.7326 7.10882C48.845 7.21912 48.9319 7.35278 48.9872 7.50043C49.0426 7.64807 49.0649 7.80609 49.0528 7.96335C49.0648 8.12232 49.0436 8.28206 48.9905 8.43234C48.9375 8.58262 48.8537 8.72013 48.7447 8.83608C48.4663 9.05775 48.1139 9.16404 47.7599 9.13306H47.3853V6.81791ZM47.3853 10.1452H47.9894C48.4633 10.0964 48.9389 10.2189 49.3307 10.4906C49.4541 10.5998 49.553 10.7341 49.6207 10.8846C49.6884 11.0351 49.7234 11.1983 49.7234 11.3634C49.7234 11.5285 49.6884 11.6916 49.6207 11.8421C49.553 11.9926 49.4541 12.1269 49.3307 12.2361C48.9773 12.4807 48.5501 12.5942 48.1224 12.5573H47.3792L47.3853 10.1452Z" fill="#1B3E3E"/>
<path d="M54.6174 13.8123C54.9729 13.8228 55.3269 13.7611 55.6581 13.6309C55.9893 13.5007 56.2908 13.3047 56.5447 13.0547C56.799 12.8103 56.9996 12.5154 57.1338 12.1887C57.268 11.8621 57.3328 11.5109 57.324 11.1578C57.3257 10.811 57.2575 10.4674 57.1236 10.1477C56.9896 9.82796 56.7927 9.53867 56.5447 9.29714C56.2944 9.04663 55.9963 8.84934 55.6683 8.71709C55.3402 8.58483 54.989 8.52034 54.6355 8.52745C54.2852 8.51991 53.937 8.58369 53.612 8.71494C53.287 8.84619 52.9918 9.04218 52.7444 9.29108C52.4934 9.52904 52.2944 9.81682 52.1602 10.1361C52.0261 10.4554 51.9596 10.7992 51.9651 11.1456C51.9542 11.5011 52.0162 11.855 52.1471 12.1854C52.2781 12.5159 52.4752 12.8159 52.7263 13.0668C52.9733 13.3151 53.2688 13.5094 53.5942 13.6377C53.9196 13.766 54.268 13.8254 54.6174 13.8123ZM53.5601 9.99411C53.702 9.85154 53.8706 9.73845 54.0562 9.66128C54.2417 9.58412 54.4407 9.54439 54.6415 9.54439C54.8424 9.54439 55.0413 9.58412 55.2269 9.66128C55.4124 9.73845 55.581 9.85154 55.723 9.99411C56.0071 10.3152 56.1545 10.735 56.1338 11.1638C56.1536 11.5943 56.0063 12.0157 55.723 12.3396C55.4305 12.6211 55.0408 12.7783 54.6355 12.7783C54.2301 12.7783 53.8405 12.6211 53.548 12.3396C53.2646 12.002 53.1218 11.5679 53.1492 11.1274C53.1355 10.7107 53.2827 10.3047 53.5601 9.99411Z" fill="#1B3E3E"/>
<path d="M59.7039 4.94531H58.5439V13.6726H59.7039V4.94531Z" fill="#1B3E3E"/>
<path d="M62.6346 12.7755C62.4488 12.7777 62.2693 12.7083 62.1331 12.5816C62.0075 12.4435 61.9017 12.2885 61.819 12.121L60.8281 12.5816C60.9409 12.8647 61.1189 13.117 61.3474 13.3179C61.576 13.5188 61.8487 13.6627 62.1432 13.7377C62.4378 13.8128 62.7459 13.8169 63.0423 13.7497C63.3387 13.6825 63.6152 13.546 63.849 13.3513C64.0204 13.2001 64.1572 13.0135 64.2501 12.8042C64.3429 12.595 64.3895 12.3681 64.3867 12.1391C64.4029 11.8057 64.2879 11.4792 64.0665 11.2301C63.6984 10.9133 63.2769 10.665 62.8219 10.4967C62.3748 10.3088 62.1513 10.1149 62.1513 9.92703C62.1502 9.87603 62.16 9.8254 62.1797 9.77842C62.1995 9.73143 62.2289 9.68913 62.266 9.65429C62.3389 9.58358 62.4365 9.54441 62.5379 9.54521C62.7615 9.54521 62.9488 9.70277 63.0998 10.0119L64.0604 9.50278C63.9527 9.20898 63.7576 8.95549 63.5014 8.77663C63.2453 8.59776 62.9406 8.50217 62.6285 8.50278C62.216 8.49419 61.8167 8.64876 61.5169 8.93308C61.369 9.07135 61.2521 9.23958 61.174 9.42661C61.0959 9.61365 61.0583 9.81522 61.0638 10.0179C61.0511 10.312 61.1456 10.6007 61.3296 10.8301C61.5334 11.0399 61.7754 11.2086 62.0425 11.327L62.3929 11.4967L62.7433 11.6664C63.0454 11.8422 63.1965 12.0361 63.1965 12.2725C63.2206 12.5937 63.0273 12.7755 62.6346 12.7755Z" fill="#1B3E3E"/>
<path d="M68.6274 10.6968V13.6726H69.7874V10.5877C69.8349 10.0385 69.6801 9.49086 69.3524 9.04834C69.178 8.86464 68.9665 8.72042 68.7321 8.62531C68.4976 8.5302 68.2457 8.48638 67.993 8.49682C67.4841 8.50328 66.9963 8.70245 66.6276 9.0544V4.94531H65.4736V13.6726H66.6276V11.2483C66.5928 10.7977 66.6783 10.3458 66.8753 9.93925C66.9716 9.80646 67.101 9.70133 67.2505 9.63433C67.3999 9.56734 67.5643 9.54082 67.7272 9.55743C67.8552 9.54612 67.9841 9.56489 68.1036 9.61223C68.2232 9.65957 68.3301 9.73418 68.4159 9.83016C68.5756 10.0895 68.6496 10.3928 68.6274 10.6968Z" fill="#1B3E3E"/>
<path d="M74.9288 13.6726H76.0949V8.6362H74.9288V9.24226C74.7324 9.01739 74.4911 8.83644 74.2205 8.71115C73.9499 8.58586 73.656 8.51902 73.358 8.51498C73.0379 8.50938 72.7206 8.57433 72.4283 8.70523C72.136 8.83613 71.8759 9.02979 71.6663 9.27256C71.2122 9.79258 70.9725 10.4665 70.9957 11.1574C70.9723 11.8594 71.2115 12.5447 71.6663 13.0786C71.8696 13.308 72.1176 13.4931 72.395 13.6225C72.6725 13.7518 72.9734 13.8226 73.2792 13.8306C73.5851 13.8385 73.8893 13.7834 74.173 13.6687C74.4568 13.5539 74.714 13.382 74.9288 13.1635V13.6726ZM74.6026 12.3332C74.4729 12.4796 74.3124 12.5952 74.1327 12.6717C73.9529 12.7483 73.7585 12.7837 73.5634 12.7756C73.3734 12.779 73.1851 12.7394 73.0125 12.6596C72.8399 12.5799 72.6874 12.4621 72.5665 12.315C72.2983 11.9839 72.1607 11.5655 72.1799 11.1392C72.1673 10.723 72.3094 10.3169 72.5786 9.99984C72.7007 9.85454 72.8535 9.73835 73.0259 9.65972C73.1984 9.5811 73.3861 9.54201 73.5755 9.54529C73.7692 9.53887 73.9618 9.57579 74.1395 9.65336C74.3171 9.73094 74.4753 9.84722 74.6026 9.99377C74.8613 10.3285 75.0016 10.74 75.0016 11.1635C75.0016 11.587 74.8613 11.9985 74.6026 12.3332Z" fill="#1B3E3E"/>
<path d="M79.7266 10.7514L81.9076 8.63622H80.3489L78.7176 10.2665V4.94531H77.5576V13.6726H78.7176V11.7332L78.9049 11.5453L80.5603 13.6726H82.0647L79.7266 10.7514Z" fill="#1B3E3E"/>
<path d="M85.0129 13.8121C85.3675 13.8218 85.7203 13.7596 86.0504 13.6295C86.3805 13.4993 86.6811 13.3038 86.9342 13.0545C87.1885 12.8101 87.3891 12.5152 87.5233 12.1885C87.6575 11.8619 87.7223 11.5107 87.7136 11.1576C87.7201 10.8061 87.6549 10.457 87.5219 10.1319C87.3889 9.80666 87.1909 9.51222 86.9402 9.26665C86.4294 8.77441 85.7485 8.49951 85.0401 8.49951C84.3318 8.49951 83.6509 8.77441 83.14 9.26665C82.8889 9.50461 82.69 9.79237 82.5558 10.1117C82.4216 10.4309 82.3552 10.7747 82.3606 11.1212C82.3495 11.4772 82.4119 11.8317 82.544 12.1623C82.676 12.4929 82.8748 12.7926 83.1279 13.0424C83.3717 13.2948 83.6652 13.4937 83.9897 13.6262C84.3142 13.7587 84.6627 13.822 85.0129 13.8121ZM83.9617 9.99391C84.0984 9.8462 84.2652 9.7297 84.4508 9.65232C84.6363 9.57494 84.8363 9.53849 85.0371 9.54543C85.2397 9.53832 85.4415 9.57465 85.6291 9.65198C85.8166 9.72932 85.9855 9.84589 86.1246 9.99391C86.407 10.3156 86.5524 10.7356 86.5294 11.1636C86.5549 11.586 86.4188 12.0022 86.1488 12.3272C86.0089 12.4734 85.8395 12.5879 85.652 12.6632C85.4644 12.7384 85.263 12.7727 85.0613 12.7636C84.8589 12.7731 84.6569 12.7385 84.4691 12.6621C84.2814 12.5857 84.1124 12.4694 83.9738 12.3212C83.6882 11.9846 83.5432 11.5503 83.569 11.1091C83.5525 10.7006 83.6931 10.3014 83.9617 9.99391Z" fill="#1B3E3E"/>
<path d="M93.2474 8.63623H91.9424L90.6495 11.4665L89.3505 8.63623H88.0576L90.6374 14.0181L93.2474 8.63623Z" fill="#1B3E3E"/>
<path d="M47.4816 23.521H50.8892L51.7229 25.4604H53.0339L49.2398 16.9756L45.3066 25.4604H46.5996L47.4816 23.521ZM49.2216 19.6786L50.3998 22.3877H47.9831L49.2216 19.6786Z" fill="#1B3E3E"/>
<path d="M57.0157 23.9213C57.0263 23.7568 57.0034 23.5919 56.9483 23.4367C56.8933 23.2814 56.8073 23.139 56.6955 23.0183C56.3315 22.6975 55.9116 22.4468 55.457 22.2789C55.0099 22.091 54.7863 21.9031 54.7863 21.7092C54.7845 21.6581 54.7939 21.6072 54.8137 21.5601C54.8335 21.513 54.8634 21.4708 54.9011 21.4364C54.9369 21.4014 54.9795 21.3741 55.0263 21.3564C55.0731 21.3386 55.123 21.3308 55.173 21.3334C55.3965 21.3334 55.5838 21.4849 55.7349 21.794L56.6955 21.2849C56.5874 20.9901 56.3913 20.736 56.134 20.557C55.8767 20.3781 55.5707 20.2831 55.2576 20.2849C54.8453 20.2776 54.4464 20.432 54.1459 20.7152C53.9997 20.8545 53.8844 21.0231 53.8074 21.2099C53.7303 21.3968 53.6934 21.5979 53.6988 21.8001C53.6862 22.0942 53.7807 22.3828 53.9647 22.6122C54.1644 22.8241 54.4048 22.9931 54.6715 23.1092L55.028 23.2789L55.3784 23.4486C55.6805 23.6304 55.8315 23.8182 55.8315 24.0546C55.8315 24.4122 55.6382 24.5879 55.2274 24.5879C55.04 24.5892 54.8589 24.52 54.7199 24.394C54.5962 24.2543 54.4907 24.0996 54.4057 23.9334L53.4209 24.394C53.5327 24.678 53.7101 24.9313 53.9385 25.133C54.167 25.3347 54.44 25.4791 54.735 25.5543C55.03 25.6295 55.3385 25.6333 55.6353 25.5653C55.932 25.4974 56.2084 25.3598 56.4417 25.1637C56.6241 25.013 56.7703 24.8231 56.8697 24.608C56.969 24.393 57.0189 24.1583 57.0157 23.9213Z" fill="#1B3E3E"/>
<path d="M59.7341 22.2789C59.287 22.091 59.0695 21.9031 59.0695 21.7092C59.0681 21.6587 59.077 21.6084 59.0957 21.5615C59.1144 21.5146 59.1425 21.472 59.1783 21.4364C59.2517 21.3674 59.3495 21.3303 59.4501 21.3334C59.6797 21.3334 59.861 21.4849 60.012 21.794L60.9726 21.2849C60.8649 20.9911 60.6698 20.7376 60.4137 20.5588C60.1575 20.3799 59.8528 20.2843 59.5408 20.2849C59.1285 20.2776 58.7296 20.432 58.4291 20.7152C58.282 20.8538 58.166 21.0222 58.089 21.2093C58.0119 21.3963 57.9754 21.5978 57.982 21.8001C57.9677 22.0934 58.06 22.382 58.2418 22.6122C58.4439 22.824 58.6864 22.993 58.9547 23.1092L59.3112 23.2789L59.6616 23.4486C59.9637 23.6304 60.1147 23.8182 60.1147 24.0546C60.1147 24.4122 59.9153 24.5879 59.5106 24.5879C59.3248 24.5901 59.1453 24.5207 59.0091 24.394C58.8854 24.2543 58.7799 24.0996 58.6949 23.9334L57.7041 24.394C57.8159 24.678 57.9933 24.9313 58.2217 25.133C58.4502 25.3347 58.7232 25.4791 59.0182 25.5543C59.3132 25.6295 59.6217 25.6333 59.9185 25.5653C60.2152 25.4974 60.4916 25.3598 60.7249 25.1637C60.8964 25.0125 61.0332 24.8259 61.126 24.6167C61.2188 24.4074 61.2654 24.1806 61.2626 23.9516C61.2715 23.7873 61.2478 23.6229 61.1928 23.4678C61.1379 23.3128 61.0527 23.1703 60.9424 23.0485C60.5892 22.721 60.1799 22.4602 59.7341 22.2789Z" fill="#1B3E3E"/>
<path d="M65.3405 24.3575C65.1286 24.5007 64.8769 24.5729 64.6216 24.5636C64.4534 24.5686 64.2859 24.5395 64.1291 24.4781C63.9723 24.4167 63.8295 24.3241 63.7093 24.206C63.4638 23.9345 63.3225 23.5844 63.3106 23.2181H66.9053V22.9454C66.9473 22.2368 66.7183 21.5389 66.2649 20.9939C65.797 20.5316 65.1666 20.2725 64.5098 20.2725C63.8531 20.2725 63.2226 20.5316 62.7547 20.9939C62.2991 21.529 62.0636 22.2181 62.0962 22.9211C62.0607 23.6296 62.3037 24.3238 62.7728 24.8545C63.0058 25.0983 63.2881 25.2893 63.6007 25.4147C63.9133 25.5401 64.249 25.5971 64.5853 25.5817C64.8295 25.5826 65.0729 25.5541 65.3103 25.4969C65.5242 25.4426 65.7281 25.3546 65.9145 25.2363C66.1141 25.1107 66.295 24.9577 66.4522 24.7817C66.6361 24.5771 66.7981 24.3536 66.9356 24.1151L65.9568 23.5696C65.7959 23.8644 65.5877 24.1306 65.3405 24.3575ZM63.528 21.8787C63.5966 21.7669 63.6846 21.6684 63.7878 21.5878C63.8878 21.5044 64.0026 21.4406 64.1262 21.3999C64.2544 21.3554 64.3892 21.3329 64.5249 21.3333C64.8 21.3161 65.0717 21.4021 65.2872 21.5746C65.5026 21.7471 65.6466 21.9937 65.691 22.2666H63.3649C63.4057 22.1278 63.469 21.9968 63.5522 21.8787H63.528Z" fill="#1B3E3E"/>
<path d="M68.3011 25.4603H69.4611V21.5149H70.3613V20.43H69.4611V18.5815H68.3011V20.43H67.8057V21.5149H68.3011V25.4603Z" fill="#1B3E3E"/>
<path d="M50.3155 34.8728L47.5847 28.6729L45.9111 37.2486H47.1497L48.0015 32.4304L50.2913 37.6183L52.6476 32.4365L53.4149 37.2486H54.6413L53.143 28.6729L50.3155 34.8728Z" fill="#1B3E3E"/>
<path d="M59.8011 32.8C59.6052 32.5745 59.3639 32.3932 59.0932 32.2678C58.8225 32.1425 58.5284 32.076 58.2302 32.0727C57.9109 32.0663 57.5942 32.1309 57.3027 32.2619C57.0113 32.3929 56.7524 32.587 56.5446 32.8303C56.0873 33.3487 55.8451 34.0232 55.8679 34.7151C55.8432 35.4183 56.0849 36.1048 56.5446 36.6363C56.7463 36.8671 56.9935 37.0536 57.2705 37.1839C57.5475 37.3142 57.8485 37.3856 58.1543 37.3936C58.4602 37.4015 58.7644 37.3459 59.0478 37.2302C59.3312 37.1145 59.5877 36.9412 59.8011 36.7212V37.2485H60.9671V32.2121H59.8011V32.8ZM59.4808 35.9091C59.3509 36.0551 59.1903 36.1706 59.0107 36.247C58.831 36.3235 58.6367 36.3592 58.4417 36.3515C58.2507 36.3558 58.0612 36.3166 57.8874 36.2368C57.7137 36.1571 57.5603 36.0388 57.4388 35.8909C57.1725 35.5587 57.0351 35.141 57.0521 34.7151C57.0393 34.3007 57.1815 33.8964 57.4509 33.5818C57.5718 33.4347 57.7242 33.3169 57.8968 33.2372C58.0694 33.1574 58.2577 33.1178 58.4477 33.1212C58.6428 33.115 58.8368 33.1527 59.0155 33.2313C59.1943 33.3099 59.3532 33.4276 59.4808 33.5757C59.7352 33.9112 59.8729 34.321 59.8729 34.7424C59.8729 35.1638 59.7352 35.5736 59.4808 35.9091Z" fill="#1B3E3E"/>
<path d="M64.9662 32.0728C64.7087 32.0758 64.4544 32.131 64.2187 32.2352C63.983 32.3394 63.7708 32.4903 63.5948 32.6789V32.2122H62.4287V37.2486H63.5948V34.8243C63.5591 34.3729 63.6403 33.9199 63.8304 33.5092C63.9215 33.3784 64.0455 33.2741 64.1899 33.2071C64.3342 33.14 64.4937 33.1125 64.6521 33.1274C64.7878 33.1121 64.9252 33.13 65.0525 33.1796C65.1798 33.2292 65.2932 33.309 65.3831 33.4122C65.5466 33.7295 65.6178 34.0865 65.5885 34.4425V37.2546H66.7485V34.1455C66.7991 33.5997 66.6486 33.0543 66.3256 32.6122C66.1526 32.4274 65.941 32.2833 65.706 32.19C65.471 32.0968 65.2184 32.0567 64.9662 32.0728Z" fill="#1B3E3E"/>
<path d="M71.9142 32.7999C71.7173 32.5756 71.4759 32.395 71.2054 32.2698C70.9349 32.1446 70.6413 32.0774 70.3434 32.0726C70.0233 32.067 69.7059 32.1319 69.4136 32.2628C69.1213 32.3937 68.8612 32.5874 68.6517 32.8302C68.1965 33.3499 67.9547 34.0235 67.9751 34.715C67.9527 35.4179 68.1942 36.1035 68.6517 36.6362C68.854 36.8672 69.1016 37.0537 69.3792 37.1841C69.6567 37.3145 69.9581 37.3859 70.2645 37.3939C70.5708 37.4019 70.8755 37.3462 71.1594 37.2304C71.4433 37.1146 71.7003 36.9412 71.9142 36.7211V37.2484H73.0742V32.212H71.9142V32.7999ZM71.588 35.909C71.458 36.055 71.2974 36.1705 71.1178 36.2469C70.9381 36.3234 70.7438 36.3591 70.5488 36.3514C70.3578 36.3557 70.1683 36.3165 69.9946 36.2368C69.8208 36.157 69.6674 36.0387 69.5459 35.8908C69.2796 35.5586 69.1422 35.1409 69.1592 34.715C69.1464 34.3006 69.2887 33.8963 69.558 33.5817C69.6798 33.4342 69.8333 33.3161 70.0069 33.2363C70.1806 33.1566 70.3699 33.1172 70.5609 33.1211C70.755 33.1158 70.9478 33.1539 71.1254 33.2325C71.303 33.3111 71.461 33.4283 71.588 33.5756C71.8461 33.9094 71.9863 34.3198 71.9863 34.7423C71.9863 35.1648 71.8461 35.5752 71.588 35.909Z" fill="#1B3E3E"/>
<path d="M78.2341 32.7816C78.0395 32.5543 77.7972 32.3729 77.5247 32.2503C77.2521 32.1277 76.9559 32.067 76.6573 32.0725C76.3234 32.0613 75.9917 32.1296 75.6892 32.2718C75.3868 32.414 75.1223 32.6261 74.9173 32.8907C74.5046 33.4253 74.2909 34.0876 74.3131 34.7634C74.2924 35.4518 74.5271 36.1234 74.9716 36.6482C75.1764 36.8796 75.4271 37.0655 75.7077 37.1939C75.9883 37.3222 76.2925 37.3903 76.6009 37.3938C76.9093 37.3972 77.215 37.3359 77.4983 37.2137C77.7817 37.0916 78.0364 36.9114 78.2462 36.6846V37.3876C78.2462 38.4301 77.8173 38.9513 76.9714 38.9513C76.7718 38.963 76.5723 38.9267 76.3895 38.8456C76.2067 38.7644 76.0458 38.6407 75.9202 38.4846C75.7994 38.3034 75.7247 38.0954 75.7027 37.8785H74.5366C74.5561 38.1749 74.6346 38.4643 74.7674 38.7297C74.9003 38.9952 75.0847 39.2312 75.31 39.424C75.777 39.7973 76.3627 39.9889 76.9593 39.9634C77.3099 39.9817 77.6601 39.9209 77.9842 39.7856C78.3083 39.6503 78.5981 39.4439 78.8323 39.1816C79.0742 38.9033 79.2406 38.5673 79.3156 38.2058C79.3466 38.0476 79.3687 37.8877 79.382 37.727C79.382 37.5452 79.382 37.3331 79.382 37.121V32.2058H78.2341V32.7816ZM77.92 35.8664C77.7906 36.0175 77.6303 36.1388 77.4499 36.222C77.2695 36.3051 77.0733 36.3482 76.8747 36.3482C76.6762 36.3482 76.48 36.3051 76.2996 36.222C76.1192 36.1388 75.9589 36.0175 75.8296 35.8664C75.6054 35.5323 75.4857 35.1388 75.4857 34.7361C75.4857 34.3334 75.6054 33.9399 75.8296 33.6058C75.9523 33.4465 76.1112 33.3189 76.293 33.2336C76.4747 33.1482 76.6742 33.1075 76.8747 33.1149C77.0666 33.109 77.2573 33.1462 77.4329 33.2238C77.6085 33.3014 77.7646 33.4174 77.8897 33.5634C78.1354 33.8942 78.2706 34.2945 78.276 34.7069C78.2815 35.1194 78.1568 35.5231 77.92 35.8603V35.8664Z" fill="#1B3E3E"/>
<path d="M83.8591 36.1455C83.6472 36.2887 83.3955 36.3608 83.1401 36.3516C82.9719 36.3569 82.8043 36.328 82.6475 36.2666C82.4907 36.2051 82.3479 36.1124 82.2279 35.994C81.9824 35.7225 81.8411 35.3724 81.8291 35.0061H85.4239V34.7515C85.4659 34.043 85.2368 33.345 84.7835 32.8C84.3155 32.3377 83.6851 32.0786 83.0284 32.0786C82.3716 32.0786 81.7412 32.3377 81.2733 32.8C80.8176 33.3352 80.5822 34.0243 80.6147 34.7273C80.5793 35.4358 80.8222 36.1299 81.2914 36.6606C81.5239 36.9051 81.8061 37.0965 82.1188 37.222C82.4315 37.3475 82.7675 37.404 83.1039 37.3879C83.3501 37.3891 83.5955 37.3606 83.8349 37.3031C84.0484 37.2477 84.2522 37.1598 84.4391 37.0425C84.6375 36.9153 84.8183 36.7625 84.9768 36.5879C85.1621 36.3844 85.3242 36.1608 85.4601 35.9212L84.4754 35.3758C84.3127 35.6641 84.1046 35.924 83.8591 36.1455ZM82.0466 33.6667C82.1152 33.5549 82.2032 33.4564 82.3064 33.3758C82.4078 33.2945 82.5222 33.231 82.6447 33.1879C82.7711 33.1441 82.9038 33.1215 83.0374 33.1212C83.3133 33.1039 83.5857 33.1897 83.8022 33.3621C84.0186 33.5345 84.1638 33.7812 84.2095 34.0546H81.9197C81.9492 33.9181 82.0002 33.7871 82.0708 33.6667H82.0466Z" fill="#1B3E3E"/>
<path d="M91.8761 32.0725C91.5872 32.0641 91.3007 32.1279 91.0423 32.258C90.784 32.3881 90.5619 32.5805 90.3959 32.818C90.2576 32.5862 90.0608 32.3952 89.8252 32.2643C89.5897 32.1334 89.3239 32.0672 89.0547 32.0725C88.8358 32.0668 88.6186 32.1125 88.4203 32.2058C88.2059 32.3328 88.0122 32.4923 87.8463 32.6786V32.2119H86.6924V37.2483H87.8463V34.6483C87.819 34.2488 87.8983 33.8493 88.0759 33.4907C88.1497 33.3696 88.2551 33.271 88.3808 33.2058C88.5065 33.1406 88.6477 33.1113 88.7888 33.121C89.3024 33.121 89.5561 33.5695 89.5561 34.4665V37.2483H90.7222V34.6483C90.6946 34.2481 90.7694 33.8476 90.9397 33.4846C91.0117 33.3651 91.1153 33.2679 91.239 33.2037C91.3627 33.1395 91.5016 33.1109 91.6405 33.121C91.7601 33.1099 91.8803 33.133 91.9872 33.1878C92.0942 33.2425 92.1834 33.3265 92.2447 33.4301C92.3845 33.7524 92.4446 34.1038 92.4199 34.4543V37.2483H93.5859V34.1452C93.5779 32.7675 93.008 32.0765 91.8761 32.0725Z" fill="#1B3E3E"/>
<path d="M98.0387 36.1455C97.8268 36.2887 97.575 36.3609 97.3197 36.3516C97.1514 36.357 96.9838 36.3281 96.827 36.2666C96.6702 36.2052 96.5275 36.1124 96.4074 35.994C96.1619 35.7226 96.0206 35.3725 96.0087 35.0061H99.6034V34.7516C99.6424 34.0434 99.4137 33.3466 98.963 32.8001C98.4941 32.3374 97.8627 32.0781 97.2049 32.0781C96.5472 32.0781 95.9158 32.3374 95.4468 32.8001C94.9933 33.3365 94.7581 34.0247 94.7882 34.7273C94.7544 35.4366 94.9996 36.1309 95.471 36.6607C95.7035 36.9051 95.9857 37.0965 96.2984 37.222C96.6111 37.3475 96.947 37.4041 97.2835 37.388C97.5276 37.3892 97.7711 37.3607 98.0085 37.3031C98.2221 37.2482 98.4259 37.1603 98.6126 37.0425C98.8098 36.9138 98.9904 36.7611 99.1503 36.588C99.3336 36.3842 99.4936 36.1606 99.6276 35.9213L98.6489 35.3758C98.4881 35.6637 98.282 35.9236 98.0387 36.1455ZM96.2262 33.6667C96.2947 33.555 96.3827 33.4564 96.4859 33.3758C96.5874 33.2946 96.7018 33.2311 96.8243 33.188C96.9506 33.1441 97.0833 33.1216 97.217 33.1213C97.4928 33.104 97.7653 33.1898 97.9817 33.3622C98.1982 33.5345 98.3433 33.7812 98.3891 34.0546H96.057C96.1024 33.9166 96.1675 33.786 96.2503 33.6667H96.2262Z" fill="#1B3E3E"/>
<path d="M103.404 32.0727C103.146 32.076 102.892 32.1314 102.656 32.2355C102.421 32.3397 102.208 32.4904 102.032 32.6787V32.2121H100.872V37.2484H102.032V34.8242C101.996 34.3728 102.078 33.9198 102.268 33.509C102.359 33.3782 102.483 33.274 102.627 33.2069C102.772 33.1399 102.931 33.1124 103.089 33.1272C103.225 33.112 103.362 33.1299 103.49 33.1795C103.617 33.2291 103.731 33.3089 103.82 33.4121C103.988 33.7277 104.06 34.0861 104.026 34.4424V37.2545H105.192V34.1454C105.24 33.5999 105.089 33.0554 104.769 32.6121C104.595 32.4275 104.382 32.2835 104.146 32.1903C103.91 32.0971 103.657 32.057 103.404 32.0727Z" fill="#1B3E3E"/>
<path d="M107.85 32.2181V30.3696H106.69V32.2181H106.194V33.303H106.69V37.2484H107.85V33.303H108.75V32.2181H107.85Z" fill="#1B3E3E"/>
<path d="M38.4552 31.7271H0V37.2361H38.4552V31.7271Z" fill="#1B3E3E"/>
<path d="M38.4162 10.4475C38.1987 -2.40708 21.1431 -3.20708 17.3671 6.96867C10.9387 2.89595 0.099961 5.38079 -0.00878906 15.5262V28.5444H5.48309V15.6838C5.48309 8.34443 16.4548 8.34443 16.4608 15.6838V28.5505H21.9527V10.6959C21.9527 3.35655 32.9304 3.35655 32.9304 10.6959V17.0293H27.4627V21.5687H32.9304V28.5444H38.4162V10.4475Z" fill="#1B3E3E"/>
</g>
<defs>
<clipPath id="clip0_171_84">
<rect width="108.75" height="40" fill="white"/>
</clipPath>
</defs>
</svg>
