<svg width="14" height="16" viewBox="0 0 14 16" fill="none" xmlns="http://www.w3.org/2000/svg">
<path d="M12.4375 2H9.3025C8.9875 1.13 8.1625 0.5 7.1875 0.5C6.2125 0.5 5.3875 1.13 5.0725 2H1.9375C1.1125 2 0.4375 2.675 0.4375 3.5V14C0.4375 14.825 1.1125 15.5 1.9375 15.5H12.4375C13.2625 15.5 13.9375 14.825 13.9375 14V3.5C13.9375 2.675 13.2625 2 12.4375 2ZM7.1875 2C7.6 2 7.9375 2.3375 7.9375 2.75C7.9375 3.1625 7.6 3.5 7.1875 3.5C6.775 3.5 6.4375 3.1625 6.4375 2.75C6.4375 2.3375 6.775 2 7.1875 2ZM5.6875 12.5L2.6875 9.5L3.745 8.4425L5.6875 10.3775L10.63 5.435L11.6875 6.5L5.6875 12.5Z" fill="white"/>
</svg>
